<?xml version="1.0" encoding="utf-8"?>
<!-- Generator: Adobe Illustrator 25.4.1, SVG Export Plug-In . SVG Version: 6.00 Build 0)  -->
<svg version="1.1" id="Layer_1" xmlns="http://www.w3.org/2000/svg" xmlns:xlink="http://www.w3.org/1999/xlink" x="0px" y="0px"
	 viewBox="0 0 42 16.3" style="enable-background:new 0 0 42 16.3;" xml:space="preserve">
<style type="text/css">
	.st0{fill:#FB4E0B;}
</style>
<g id="Layer_1_00000175297804150502457210000003569987389171423149_">
</g>
<g>
	<path class="st0" d="M25.4,15.8h3.4l-5.5-7.6l5.5-7.6h-3.4L21.6,6l-3.8-5.4h-3.4l5.5,7.6l-5.5,7.6h3.4l3.8-5.4L25.4,15.8z
		 M13.1,15.8v-2.6H3.3V9.5h9.9V6.9H3.3V3.3h9.9V0.6H2.9C1.6,0.6,0.5,1.7,0.5,3v10.3c0,1.3,1.1,2.4,2.4,2.4H13.1z M32.4,15.8h9.1V13
		h-8.3V0.6H30v12.7C30,14.7,31.1,15.8,32.4,15.8z"/>
</g>
</svg>
